<svg width="24" height="24" viewBox="0 0 24 24" fill="none" xmlns="http://www.w3.org/2000/svg">
<path d="M8.77796 0.095928C7.75264 0.581004 7.74014 1.78805 8.75921 2.26185C8.97803 2.36338 9.15933 2.36902 11.979 2.36902C14.7549 2.36902 14.9862 2.35774 15.2175 2.26185C16.2428 1.83318 16.2553 0.581004 15.2363 0.107209C15.0174 0.00568104 14.8361 4.07696e-05 11.9852 4.07696e-05C9.3594 0.00568104 8.94052 0.0169621 8.77796 0.095928Z" fill="#D04444"/>
<path d="M2.40076 3.60423C0.775245 3.63807 0.706474 3.65499 0.356363 3.98778C-0.118788 4.43901 -0.118788 5.14971 0.356363 5.60094C0.675214 5.90552 0.831513 5.95065 1.77556 5.97885L2.65084 6.00705L2.6821 13.6216L2.71336 21.2362L2.87591 21.6141C3.33856 22.6858 4.17007 23.436 5.35795 23.8533L5.77683 24H11.935H18.0932L18.5309 23.8759C19.7062 23.5375 20.6378 22.7253 21.1192 21.6141L21.2817 21.2362L21.313 13.6216L21.3443 6.00705L22.2195 5.97885C23.1636 5.95065 23.3199 5.90552 23.6387 5.60094C24.2577 5.01434 24.0576 4.10623 23.2199 3.70576L22.9698 3.58731L13.4355 3.58167C8.19009 3.57603 3.22602 3.58731 2.40076 3.60423ZM18.6872 13.2606C18.6872 18.6021 18.6684 20.5481 18.6121 20.7455C18.5121 21.1065 18.0745 21.5013 17.6743 21.5915C17.2555 21.6874 6.73963 21.6874 6.32075 21.5915C5.92062 21.5013 5.48299 21.1065 5.38295 20.7455C5.32669 20.5481 5.30793 18.6021 5.30793 13.2606V6.03525H11.9975H18.6872V13.2606Z" fill="#D04444"/>
<path d="M8.88382 8.46628C8.59622 8.54525 8.14608 8.96264 8.0648 9.22774C8.02104 9.37439 7.99603 10.7281 7.99603 13.2606V17.0679L8.15858 17.3669C8.57747 18.1227 9.68407 18.2581 10.303 17.6207C10.4781 17.4402 10.5719 17.2766 10.6219 17.0736C10.6719 16.8705 10.6844 15.6522 10.6719 13.0294L10.6531 9.27851L10.4781 9.01341C10.1717 8.53961 9.47776 8.30271 8.88382 8.46628Z" fill="#D04444"/>
<path d="M14.0544 8.56248C13.8105 8.67529 13.6667 8.79373 13.5292 8.99679L13.3416 9.26753L13.3229 13.0241C13.3104 15.7484 13.3229 16.8652 13.3729 17.0852C13.4729 17.5025 13.8981 17.8917 14.3482 17.9876C14.9609 18.123 15.5548 17.8748 15.8362 17.3672L15.9987 17.0682V13.2666C15.9987 10.4182 15.98 9.4029 15.9237 9.22805C15.8237 8.9291 15.4173 8.56248 15.0859 8.47223C14.6858 8.36506 14.417 8.38762 14.0544 8.56248Z" fill="#D04444"/>
</svg>
