<svg width="20" height="20" viewBox="0 0 20 20" fill="none" xmlns="http://www.w3.org/2000/svg">
<g clip-path="url(#clip0_3020_1245)">
<path d="M19.7656 18.5523L14.2047 12.939C15.4652 11.3509 16.069 9.34003 15.8919 7.32021C15.7148 5.3004 14.7702 3.42529 13.2526 2.08075C11.735 0.736206 9.75969 0.0245126 7.73325 0.0921182C5.70681 0.159724 3.78336 1.00149 2.35871 2.44419C0.934053 3.88689 0.11657 5.82078 0.0744788 7.84791C0.0323873 9.87504 0.768889 11.8412 2.13243 13.3418C3.49597 14.8424 5.38282 15.7633 7.4047 15.9149C9.42659 16.0666 11.4297 15.4375 13.0018 14.1571L18.5256 19.7342C18.682 19.8978 18.8967 19.993 19.123 19.9989C19.3492 20.0047 19.5686 19.9209 19.7332 19.7657C19.8152 19.6882 19.881 19.5953 19.927 19.4924C19.973 19.3894 19.9982 19.2784 20.0012 19.1657C20.0042 19.053 19.9849 18.9408 19.9445 18.8356C19.9041 18.7303 19.8433 18.6341 19.7656 18.5523ZM7.97617 14.2257C6.52836 14.2257 5.12536 13.7236 4.00621 12.8051C2.88706 11.8866 2.121 10.6085 1.83855 9.18852C1.5561 7.76854 1.77473 6.29455 2.45721 5.01769C3.13968 3.74083 4.24376 2.74011 5.58135 2.18602C6.91893 1.63193 8.40725 1.55877 9.79272 1.97898C11.1782 2.3992 12.3751 3.2868 13.1795 4.49056C13.984 5.69432 14.3461 7.13976 14.2043 8.5806C14.0625 10.0214 13.4255 11.3685 12.4019 12.3924C11.822 12.9754 11.1323 13.4376 10.3726 13.7523C9.61295 14.067 8.79842 14.2279 7.97617 14.2257Z" fill="#939393"/>
</g>
<defs>
<clipPath id="clip0_3020_1245">
<rect width="19.9951" height="19.9999" fill="white" transform="translate(0.00488281 6.10352e-05)"/>
</clipPath>
</defs>
</svg>
