<svg width="32" height="32" viewBox="0 0 32 32" fill="none" xmlns="http://www.w3.org/2000/svg">
<path d="M16 32C24.8366 32 32 24.8366 32 16C32 7.16344 24.8366 0 16 0C7.16344 0 0 7.16344 0 16C0 24.8366 7.16344 32 16 32Z" fill="#26AD13"/>
<path d="M25.2291 10.4342L23.8131 8.9012C23.7842 8.86878 23.7492 8.84306 23.7104 8.82565C23.6715 8.80825 23.6297 8.79956 23.5875 8.80012C23.5452 8.7988 23.5031 8.80715 23.4641 8.8246C23.4252 8.84205 23.3903 8.86819 23.3619 8.9012L13.5491 19.3089L9.97788 15.5488C9.94889 15.5167 9.91401 15.4912 9.87537 15.4738C9.83673 15.4563 9.79512 15.4473 9.75308 15.4473C9.71104 15.4473 9.66943 15.4563 9.63079 15.4738C9.59215 15.4912 9.55727 15.5167 9.52828 15.5488L8.09628 17.0566C8.0658 17.0879 8.04158 17.1254 8.02505 17.1668C8.00852 17.2081 8 17.2526 8 17.2975C8 17.3423 8.00852 17.3868 8.02505 17.4281C8.04158 17.4695 8.0658 17.507 8.09628 17.5384L12.6003 22.2806C12.8445 22.5611 13.1808 22.7333 13.5411 22.7624C13.8946 22.7291 14.2253 22.5643 14.4739 22.2975H14.4819L25.2339 10.9177C25.2898 10.8507 25.3202 10.7642 25.3193 10.675C25.3184 10.5858 25.2863 10.5 25.2291 10.4342Z" fill="white"/>
</svg>
